<svg xmlns="http://www.w3.org/2000/svg" width="82" height="30" viewBox="0 0 82 30">
  <path d="M16.9 24.9c3-6.2 6.2-12.3 9-18.6.9 0 1.8.1 2.7.1 1 0 2-.1 2.9-.1v.9c-1.1 0-1.9.1-2.3.4-.4.3-.6.9-.6 2 0 5.2.3 10.8.4 15.8.1 2.5.3 3.2 3.6 3.2v.9c-1.8 0-3.6-.1-5.5-.1-1.6 0-3.2 0-4.8.1v-.9c1.2 0 2 0 2.6-.3.6-.3.9-1 .9-2.3l-.2-15.8h-.1l-7.8 16.3c-.4.8-1 2.4-1.3 3.3h-.7c-2.8-6.3-6-12.5-9.2-18.8h-.1l-.2 12v2.1c0 1.6.2 2.5.7 3 .5.5 1.4.6 2.7.6v.9c-1.4 0-2.8-.1-4.1-.1-1.5 0-3 0-4.4.1v-.9c2.4 0 3.8-.6 3.9-5 .1-4.7.3-9.2.3-13.7 0-1.2-.2-1.9-.6-2.3-.5-.4-1.2-.5-2.3-.5v-.9c1.2 0 2.4.1 3.5.1.7 0 1.4-.1 2.1-.1l8.9 18.6zm17.5 3.7h.6c.9 0 1.6 0 1.6-1.1v-9c0-1.5-.5-1.7-1.7-2.3v-.5c1.6-.5 3.4-1.1 3.5-1.2.2-.1.4-.2.6-.2.2 0 .2.2.2.5v12.7c0 1.1.7 1.1 1.7 1.1h.6v.9c-1.1 0-2.3-.1-3.5-.1-1.2 0-2.4 0-3.6.1v-.9zm9.2 0h.6c.9 0 1.6 0 1.6-1.1V9c0-2.2-.5-2.2-1.8-2.6v-.5c1.3-.4 2.7-1 3.4-1.4.4-.2.6-.4.7-.4.2 0 .3.2.3.5v22.9c0 1.1.7 1.1 1.7 1.1h.6v.9c-1.1 0-2.3-.1-3.5-.1s-2.4 0-3.6.1v-.9zm11.9-8.3c-.1.3-.1.8 0 1.9.2 3.2 2.2 5.7 4.9 5.7 1.8 0 3.2-1 4.5-2.2l.5.5c-1.5 2-3.4 3.7-6.1 3.7-5.3 0-6.3-5.1-6.3-7.2 0-6.5 4.4-8.4 6.7-8.4 2.7 0 5.6 1.7 5.6 5.2v.6l-.3.2h-9.5zm5.9-1.1c.8 0 .9-.4.9-.8 0-1.7-1-3.1-2.9-3.1-2 0-3.4 1.5-3.8 3.9h5.8zm7 5.7c.4 2.2 1.8 4 4.2 4 2 0 2.7-1.2 2.7-2.4 0-3.9-7.2-2.7-7.2-8 0-1.9 1.5-4.2 5.1-4.2 1.1 0 2.5.3 3.8 1l.2 3.4h-.8c-.3-2.1-1.5-3.3-3.6-3.3-1.3 0-2.6.8-2.6 2.2 0 3.9 7.7 2.7 7.7 7.9 0 2.2-1.8 4.5-5.7 4.5-1.3 0-2.9-.5-4-1.1l-.4-3.9.6-.1z" fill="#12284c"/><path d="M58.2.1c-5.2 0-9.9.5-13.8 1.2C47.7.7 51.8.4 56.1.4 67.8.4 77.3 3 77.3 6.1s-9.5 5.7-21.2 5.7c-5.8 0-11.1-.6-14.9-1.7.2-.4.4-.9.4-1.4 0-1.6-1.4-3-3-3-1.7 0-3 1.3-3 3 0 1.6 1.4 3 3 3 1 0 1.9-.5 2.5-1.3 4.2 1.3 10.3 2.1 17.2 2.1 12.7 0 23-2.8 23-6.2C81.2 2.8 70.9.1 58.2.1" fill="#fd0"/>
</svg>