<?xml version="1.0" standalone="no"?>
<!DOCTYPE svg PUBLIC "-//W3C//DTD SVG 1.1//EN" "http://www.w3.org/Graphics/SVG/1.1/DTD/svg11.dtd">
<svg xmlns="http://www.w3.org/2000/svg">
<metadata>Copyright (C) 2021 by original authors @ fontello.com</metadata>
<defs>
<font id="pmiles" horiz-adv-x="1000" >
<font-face font-family="pmiles" font-weight="400" font-stretch="normal" units-per-em="1000" ascent="850" descent="-150" />
<missing-glyph horiz-adv-x="1000" />
<glyph glyph-name="cart" unicode="&#xe800;" d="M0 824c4 7 9 13 14 19 10 8 23 9 34 4l120-47c11-5 22-9 33-13 14-4 24-17 26-31 13-71 26-142 39-213 13-72 27-145 40-218 5-29 11-58 16-88 0-4 3-8 8-8 0 0 1 0 2 0 173 0 346 0 520 0 5 0 10 3 11 8 22 68 44 137 66 205 16 53 33 106 50 159 0 2 1 3 1 6l-43 2-329 14-189 9c-17 0-33 1-50 2-13 0-26 8-31 21-5 12-3 26 6 36 8 8 20 13 31 11 42-2 84-4 126-6l330-14c65-3 129-5 193-8 17 0 32-11 37-27v-15c-4-12-9-25-12-37-14-44-28-87-42-131-21-64-41-128-62-192-8-26-16-52-24-78-3-20-22-34-42-31-1 0-1 0-1 0-165 0-330 0-495 0-7 1-13-3-15-10-8-25-17-50-27-76 6 0 10 0 14 0h520c4 0 8 0 13-1 15-1 26-14 25-28 0-15-12-27-27-27-10-1-20 0-31 0 37-43 33-107-9-144-5-4-9-8-14-10-47-31-110-17-140 30-10 15-15 32-16 50-2 27 8 53 25 73h-220c36-43 32-107-10-144-5-4-10-7-15-10-47-30-110-16-140 32-9 15-15 32-15 50-1 27 9 53 26 72-10 0-18 0-26 0-14 0-26 9-28 22-1 6 0 13 2 19 11 31 22 62 33 93 1 2 2 5 2 8-6 0-11 0-15 0-17 1-32 13-35 30-15 85-31 170-47 255-14 79-28 158-43 237-2 12-5 24-6 36 0 6-4 11-10 12-42 17-85 34-129 51-11 4-20 14-25 26v15z m448-874c1 25-18 46-43 47 0 0 0 0-1 0-25 1-46-19-47-44-1-25 19-46 44-47s46 18 47 44c0 0 0 0 0 0z m375 2c0 24-21 45-46 45-24 0-45-21-45-46 0-25 19-45 44-46 25-1 46 18 47 43 0 2 0 3 0 4l0 0z" horiz-adv-x="1061" />

<glyph glyph-name="wishlist" unicode="&#xe801;" d="M1060 519c-3-19-7-39-11-58-24-89-74-169-143-230-62-61-130-116-192-179-53-54-101-114-149-173-27-34-44-35-68 0-66 87-141 166-225 236-72 58-138 124-195 198-41 56-67 123-73 192-1 5-2 9-4 14v62c2 6 4 12 5 18 25 159 175 268 334 243 52-8 102-30 142-64 19-15 35-32 52-48 4 5 10 12 15 18 108 121 292 132 412 25 25-21 45-47 61-75 17-38 30-77 40-118l-1-61 0 0z m-530-579c13 18 26 35 41 50 83 82 166 164 250 245 60 50 110 112 147 182 36 68 41 147 15 219-45 119-178 179-297 134-49-19-91-55-118-102-1-3-2-5-4-8-9-11-20-20-33-25-14 4-25 13-31 25-43 83-132 132-225 124-88-5-166-62-196-145-33-85-22-181 29-257 31-48 67-93 109-132 112-95 217-199 313-310z" horiz-adv-x="1061" />

<glyph glyph-name="user" unicode="&#xe802;" d="M568 849c45-9 88-27 126-52 118-81 148-242 67-360-15-21-32-40-52-56-6-5-11-10-17-14 32-15 63-32 93-50 86-54 141-146 149-248 5-72 1-144 1-218h-803c-1 1-2 2-3 3-8 92-4 184 12 275 30 106 110 191 214 227 6 3 11 5 20 9-53 35-91 88-109 150-37 141 47 286 189 324 9 2 18 4 27 5 5 2 10 3 15 5l71 0 0 0z m-382-935h686c0 48 2 94 0 140-8 127-101 231-226 255-58 9-117 12-176 9-123-2-230-83-265-201-11-67-17-135-19-203z m558 667c5 117-85 216-202 221-117 6-216-85-221-201s85-216 202-221c1 0 3 0 5-1 115-2 210 88 216 202l0 0z" horiz-adv-x="1061" />

<glyph glyph-name="menu" unicode="&#xe803;" d="M1061 582h-1061v187h1061v-187z m-1014 47h967v93h-967v-93z m1014-372h-1061v186h1061v-186z m-1014 47h967v93h-967v-93l0 0z m1014-373h-1061v186h1061v-186z m-1014 47h967v93h-967v-93z" horiz-adv-x="1061" />

<glyph glyph-name="arrow" unicode="&#xe804;" d="M555 350c-95 98-187 191-278 284-68 69-67 114 1 180 30 39 86 48 125 18 7-5 13-11 18-18 127-128 254-258 380-388 42-38 45-103 7-144-2-3-5-6-8-9-126-130-253-259-380-388-50-51-97-46-154 13-43 31-53 91-22 134 5 7 12 14 19 20 95 98 191 195 292 298z" horiz-adv-x="1061" />

<glyph glyph-name="vuelos" unicode="&#xe805;" d="M987 850c13-3 25-11 33-22 4-6 7-14 10-21v-28c-2-7-4-15-7-23-16-39-39-76-66-109-57-72-118-140-184-203-6-4-7-12-4-18 56-134 112-268 168-402 7-10 4-24-6-31l-76-76c-7-11-20-14-31-8-4 3-7 7-9 11l-200 278c-14 19-28 39-42 57-57-47-113-93-170-140-2-3-3-7-2-11 15-55 30-111 46-167 3-8 1-19-6-26-18-18-36-35-54-53-7-9-20-11-29-4-3 2-5 5-6 8-8 12-15 23-22 35l-76 119c-7-2-13-5-20-7-18-7-38 1-45 18-4 9-4 19 0 28 2 6 5 13 7 19-51 32-100 63-150 95-5 5-11 10-16 15v14c5 5 9 10 14 15 15 16 31 31 46 47 7 7 18 10 28 7 55-16 110-31 166-46 4-2 10-1 13 4 16 21 33 42 50 62 29 35 59 70 89 106-8 6-17 12-25 18l-312 225c-11 5-15 18-10 28 1 3 3 5 5 8 27 27 55 54 82 82 6 7 17 9 25 4l36-15c123-51 246-102 370-154 4-3 11-2 15 2 46 45 92 90 140 133 56 56 124 99 198 126h27z m-615-359l105-76c11-5 16-18 10-28-1-4-3-6-6-8-54-65-108-129-161-194-6-10-19-15-31-9-55 15-111 30-166 46-5 2-11 0-15-4-7-7-15-14-24-23l86-54c20-13 41-26 61-39 11-4 17-17 13-28-1-2-2-5-4-6-2-4-3-9-4-13 4 2 8 3 12 5 9 8 23 6 31-3 1-2 2-4 3-6 29-46 59-92 88-139 1-2 3-4 6-8 9 10 17 18 25 27 2 4 2 7 1 11-15 56-31 111-46 167-6 12-1 25 10 31 64 53 128 107 193 160 7 10 21 12 31 4 3-2 5-5 6-8l235-326c2-3 4-6 7-10 18 18 36 35 53 54 2 3 2 7 0 11-25 61-51 122-76 183-31 74-62 147-92 220-7 11-4 25 7 32 69 66 133 136 192 211 19 26 37 54 54 83 6 11 10 24 12 37 2 13-4 20-17 17-18-5-35-11-51-19-44-25-84-55-121-89-54-49-106-100-158-150-8-11-22-14-33-7-134 56-268 112-402 168-5 4-12 2-17-3-16-17-32-33-49-50l232-167z" horiz-adv-x="1061" />

<glyph glyph-name="hoteles" unicode="&#xe806;" d="M470 723h122c4-1 7-3 11-4 21-7 34-28 33-50-2-22-17-40-38-45-8-1-15-2-23-2-28 0-28 0-28-27 0-4 3-9 7-9 1 0 2 0 3 0 15-1 29-3 44-5 107-15 206-68 278-149 72-79 111-181 111-287 0-6 2-11 7-15 17-19 36-36 54-54 5-4 8-10 8-16 1-20 1-40 0-60 0-18-5-23-24-23-337 0-673 0-1010 0-10-1-20 4-25 12v77c5 6 11 12 16 18 16 15 33 31 49 46 3 5 6 10 6 15 3 33 7 66 12 99 48 189 211 326 405 341 27 3 27 3 26 29 1 4-2 8-6 8-1 1-2 0-4 0-9 0-18 0-28 0-24 0-45 17-50 41-4 25 11 50 36 57 3 1 6 2 8 3z m-365-576h849c2 136-68 264-184 336-138 94-318 98-460 11-126-70-205-203-205-347l0 0z m-69-136h991c0 9-1 17 0 24 1 4-1 9-6 11-1 0-3 0-5 0-2 0-4 0-6 0h-861c-35 0-69 0-104 0-4 0-9 1-9-6 0-10 0-19 0-29l0 0z m26 70c0-1 1-2 1-2h936c0 1 1 2 2 3-9 7-18 14-26 22-5 6-14 10-23 9-125 0-250 0-375 0-158 0-315 0-472 0-4 0-8-1-12-3-10-9-20-19-31-29l0 0z m470 609c-18 0-35 0-52 0-10 1-19-6-20-16 0-1 0-1 0-2 0-9 9-17 18-17 1 0 1 0 1 0 35 0 70 0 105 0 9-1 18 6 18 16 0 1 0 1 0 2 0 10-9 18-19 17 0 0 0 0-1 0-17 0-34 0-50 0l0 0z m-301-355c-9-2-19 4-20 13-1 3-1 7 0 10 1 2 2 3 3 4 32 43 73 80 120 106 8 6 19 5 25-3 5-7 4-17-3-22-1-1-1-2-2-2-44-25-82-59-113-99-3-3-7-6-10-7l0 0z" horiz-adv-x="1061" />

<glyph glyph-name="auto" unicode="&#xe807;" d="M0 420c15 40 57 63 99 55 39-5 75 17 91 52 19 31 39 61 60 91 14 16 34 25 55 23 98 0 196 0 294 0 42-3 81-24 106-59 23-27 47-53 70-79 18-18 42-31 67-36 53-14 105-31 155-51 23-14 45-30 63-49v-162c-22-45-64-46-106-43-15-71-84-116-155-101-50 11-90 50-100 100h-337c-12-57-60-99-118-101-75-5-117 35-139 102-40-2-79-3-105 36l0 222 0 0z m955-214c11 0 20 0 30 0 26 0 32 6 32 31 0 32 1 66-1 99-1 10-6 20-15 27-26 15-53 28-82 37-46 16-93 27-142 30-225 4-450 2-675 2-6 0-12 0-18 0-20 2-37-12-39-31-1-4-1-8 0-11 0-43 0-86 0-130 0-57 0-57 59-54 1 0 2 0 4 1 12 55 57 96 112 102 65 6 103-22 144-103h336c29 76 73 108 140 103 56-5 103-47 115-103z m-743 270h232v122c-42 0-81-2-121 0-23 3-45-9-56-30-19-29-36-59-55-92z m524 0c-28 32-53 63-80 92-10 12-24 21-39 24-42 5-84 5-126 7v-123l245 0 0 0z m-419-291c-2 45-39 80-83 81-45-2-81-37-84-81 1-47 40-83 86-82 45 1 81 38 81 82l0 0z m510-82c46 0 83 37 85 82-4 45-41 81-86 81-45-2-81-38-81-83 0-45 38-80 82-80l0 0z" horiz-adv-x="1061" />

<glyph glyph-name="tickets" unicode="&#xe808;" d="M413-34c-1-1-1-2-2-3-18-18-36-35-54-53-17-18-46-19-64-3-1 1-2 2-2 3l-91 89c-9 8-12 21-4 31 11 20 4 45-16 57-4 2-9 4-13 4-10 2-21 1-30-4-7-4-16-5-23-2-2 2-5 4-7 6-31 30-62 60-93 91-17 16-18 43-2 61 1 1 2 2 3 3l386 379c48 47 97 95 146 143 8 9 20 14 32 14 12 0 24-5 33-14 11-10 22-21 32-32 1-1 2-2 3-3 1 1 2 2 3 3 18 18 36 36 54 53 17 19 45 20 64 3 0-1 1-2 2-3l91-88c9-8 11-22 4-31-11-21-4-46 17-57 6-3 13-5 19-5 8-1 16 1 23 5 7 4 15 5 22 1 3-2 6-3 8-6 30-29 61-59 91-89 18-16 20-43 4-61-1-2-2-3-4-4l-479-472-51-50c-17-18-45-19-64-2-1 1-1 2-2 2l-33 33c-1 0-1 0-3 1z m-367 247c0 0 1 0 1-1 27-26 53-52 80-79 1-1 3-1 5-1 14 5 28 5 43 3 47-9 78-54 69-101-1-3-1-6-2-9-1-2 0-5 1-6 26-25 52-51 78-76 1-1 2-2 3-3l2 2c21 21 42 41 63 62 1 2 2 4 3 5 2 5 6 8 10 10 2 1 4 2 5 4l447 439c1 1 2 1 3 2 0 1 0 1 0 1-27 26-54 53-81 79-1 1-3 2-4 1-14-4-29-5-44-2-47 8-77 53-69 100 1 4 2 7 3 11 0 1 0 3-1 4-7 6-13 13-20 19-2 1-3 3-6 4-4 2-7 5-10 9-1 2-2 4-3 5-13 14-27 26-40 39 0 1-1 2-2 3l-81-80c8-9 8-23-1-31-9-9-22-9-31-1l-421-412z m435-250l533 524 0 0c-26 27-53 53-80 79-1 2-3 2-5 1-14-4-28-5-43-2-47 8-78 53-69 100 0 3 1 7 2 10 1 2 0 4-2 5-26 26-52 51-78 77 0 0-1 1-1 2-20-19-39-38-59-57 8-8 16-16 24-24 3-2 4-5 6-7 4-7 3-16-1-23-5-9-7-19-5-29 5-23 28-38 51-32 5 1 8 2 12 4 10 6 23 4 31-4l91-90c18-16 20-43 4-61-1-1-2-3-4-4-10-9-20-19-29-29-1-1-2-2-3-3 2-2 4-4 7-6 8-8 9-20 2-29-7-10-21-13-31-5-1 0-2 1-3 2-2 3-5 5-6 7l-378-372c11-11 23-22 34-34l0 0z m279 430c0-9-5-18-13-22-7-4-17-3-23 2-7 6-14 13-21 20-5 7-6 17-2 24 4 7 12 11 20 11 4 0 9 0 12-3 8-7 16-14 22-22 2-3 4-6 5-10l0 0z m-128 126c1-9-4-18-12-22-8-5-17-4-24 2-7 6-14 13-20 20-6 7-7 16-2 24 4 7 11 12 19 11 5 0 9-1 13-3 8-7 15-14 22-22 2-3 3-7 4-10l0 0z m25-28c5 1 10-1 14-4 7-7 14-14 21-21 6-9 5-21-3-29-8-7-21-8-29-1-8 7-15 13-21 21-5 6-6 16-1 23 4 7 11 11 19 11l0 0z m-111 66c-5 0-10 1-14 4-7 7-14 14-21 21-6 9-5 21 3 29 8 7 20 8 29 1 7-6 14-13 20-20 6-7 7-16 2-24-3-7-11-11-19-11l0 0z" horiz-adv-x="1061" />

<glyph glyph-name="productos" unicode="&#xe809;" d="M738 604h162c29-252 58-502 87-754h-913c30 251 58 502 87 754h160c1 22 2 44 5 65 7 78 61 144 135 167 76 30 163 10 218-50 38-39 59-91 59-146 1-11 0-22 0-36z m1-44c-4-20 0-41 12-58 13-17 10-40-7-53-17-14-41-13-58 1-15 13-18 37-5 54 11 16 15 37 10 57h-321c-5-20-1-42 11-58 12-18 8-41-7-54-17-14-41-14-57 1-17 13-20 37-7 53 13 17 17 38 12 58h-122c-25-223-51-446-77-669h815c-26 224-52 447-77 668l-122 0 0 0z m-49 45c17 69-14 141-76 177-60 38-139 30-191-18-47-39-67-101-51-160h318z" horiz-adv-x="1061" />

<glyph glyph-name="aerolinea" unicode="&#xe80a;" d="M0 462c23 32 67 38 98 15 1-1 2-1 4-2 28-21 56-41 85-61 6-4 14-6 22-4 54 23 107 46 163 71-21 14-40 26-60 37-29 17-58 34-86 52-15 6-25 20-26 37 4 15 16 27 31 31 40 19 86 21 127 5 69-20 139-42 209-62 12-3 25-2 36 2 73 30 143 64 216 92 64 30 140 27 202-10 14-10 28-23 40-36v-28c-33-36-74-64-119-83-58-30-117-57-175-86-6-3-12-9-14-15-51-106-101-212-151-318-18-43-53-75-97-90-16-9-36-3-44 13-5 7-6 16-3 24 13 74 28 147 42 221 3 16 6 32 9 49-44-17-86-35-129-51-64-25-131-42-199-49-46-7-92 18-110 61-20 45-41 91-61 136-3 5-6 9-9 13l-1 36 0 0z m506-404c28 14 49 39 59 68 51 107 100 214 152 321 4 8 10 15 18 19 65 32 131 63 195 97 29 14 56 32 83 49 0 3 0 6 0 8-15 8-30 15-46 21-49 15-102 9-148-14-193-84-386-167-578-253-30-17-69-12-94 12-23 18-47 35-72 51-8 5-17 8-26 10l-3-5c19-42 37-83 57-125 26-57 30-59 95-54 6 0 12 1 18 2 80 16 158 41 232 75 39 17 78 34 122 52-22-113-42-221-64-334l0 0z m12 487c-1 2-2 3-3 4-67 20-132 40-199 58-17 2-35 2-52-1l0-7c51-31 102-61 153-91 5-2 10-3 15-1 29 12 57 26 86 38l0 0z" horiz-adv-x="1061" />

<glyph glyph-name="arrow-circular" unicode="&#xe80b;" d="M411 90c-5 0-10 2-14 6-8 8-8 20 0 28l226 226-226 226c-8 8-8 20 0 28 7 8 20 8 28 0l240-239c8-8 8-21 0-29l-240-240c-4-4-9-6-14-6z m120-240c-276 0-500 224-500 500s224 500 500 500 499-224 499-500-224-500-499-500z m0 960c-254 0-460-207-460-460 0-254 206-460 460-460s459 206 459 460c0 253-206 460-459 460z" horiz-adv-x="1061" />

<glyph glyph-name="calendar" unicode="&#xe80c;" d="M908 726h-116v59c0 16-13 29-29 29-16 0-29-12-29-28 0 0 0-1 0-1v-59h-174v59c0 16-13 29-29 29-16 0-29-12-29-28 0 0 0-1 0-1v-59h-174v59c0 16-13 29-29 29-16 0-29-12-29-28 0 0 0-1 0-1v-59h-116c-48-1-87-39-87-87v-667c0-48 39-87 87-87h754c48 0 87 39 87 87v667c0 48-39 87-87 87z m29-772c0-9-8-16-16-16h-777c-9 0-16 7-16 16v699c0 9 7 17 16 17h126v-60c0-16 13-30 29-29 16 0 28 13 28 29v60h174v-60c0-16 14-30 30-29 16 0 28 13 28 29v60h174v-60c0-16 13-30 29-29 16 0 29 13 29 29v60h129c9 0 16-8 16-17l1-699 0 0z m-551 427h-116v85h116v-85z m203 0h-116v85h116v-85z m203 0h-116v85h116v-85z m-406-145h-116v85h116v-85z m203 0h-116v85h116v-85z m203 0h-116v85h116v-85z m-406-145h-116v85h116v-85z m203 0h-116v85h116v-85z m203 0h-116v85h116v-85z" horiz-adv-x="1061" />

<glyph glyph-name="clase" unicode="&#xe80d;" d="M530-43v113h-124c-42-7-81 21-88 62 0 0 0 0 0 0-49 134-98 267-146 401-7 21-11 44-12 67-2 49-1 99 0 148 1 37 31 66 68 65 35-1 64-29 65-64 0-6 0-12 0-17-9-95 8-190 49-275 3-15 17-24 31-23 101 1 201 1 302 1 23 3 45-13 48-36 1-2 1-5 1-8 3-23-13-43-36-46-4-1-8-1-12 0-61-1-122 0-183 0h-109c11-30 20-58 32-85 5-3 12-5 19-4 133 14 266 19 400 16 10 0 21-1 32-3 23-3 38-25 35-47-1-2-1-5-2-7-9-37-19-73-29-110-6-22-27-37-50-34-57 0-114 0-171 0h-28v-113h144c13 0 27 0 40 0 17 0 31-14 32-31 0-2 0-4 0-6 2-16-11-32-28-33-2-1-4-1-6 0-152-1-304-1-456 0-18-1-32 13-33 31 0 1 0 3 1 4-2 18 11 33 28 35 2 0 4 0 5 0 51 0 101 0 151 0l30-1 0 0z" horiz-adv-x="1061" />

<glyph glyph-name="destino" unicode="&#xe80e;" d="M569 850c26-7 54-12 79-21 138-50 231-180 235-326 3-45-8-90-31-129-38-64-79-127-122-187-61-79-114-164-159-253-10-24-18-49-28-73-2-5-7-9-12-11-7 1-11 5-14 10-41 109-99 210-171 301-41 57-81 115-118 174-26 38-42 81-47 126-14 128 44 253 150 325 44 32 96 53 151 59 4 1 7 2 11 3h77l-1 2z m-40-629c155-2 282 122 285 276 2 155-122 282-276 285-155 2-282-121-285-276 0-1 0-2 0-3-1-154 122-280 276-282z" horiz-adv-x="1061" />

<glyph glyph-name="escalas" unicode="&#xe80f;" d="M289 351c0-79-63-143-142-144-79 0-143 64-144 143 0 78 64 142 142 143 1 0 1 0 1 0 79 0 142-64 143-142 0 0 0 0 0 0z m769 0c0-79-63-143-142-144-79 0-143 64-143 143-1 78 63 142 142 143 0 0 0 0 0 0 79 0 143-64 143-142 0 0 0 0 0 0z m-625 0c0-27-21-48-47-49-27 0-48 22-49 48 0 27 22 48 48 48 0 0 0 0 1 0 26 0 47-21 47-47z m145 0c0-27-21-48-47-49-27 0-48 22-49 48 0 27 22 48 48 48 0 0 0 0 1 0 26 0 47-21 47-47l0 0z m145 0c0-27-21-48-47-49-27 0-48 22-49 48 0 27 22 48 48 48 0 0 0 0 1 0 26 0 47-21 47-47l0 0z" horiz-adv-x="1061" />

<glyph glyph-name="horario" unicode="&#xe810;" d="M530 850c276 0 500-224 500-499 1-276-223-501-499-501-276 0-500 223-500 499 0 0 0 0 0 0 1 276 224 499 499 501z m408-502c1 225-180 408-405 409s-409-180-410-406c-1-224 180-407 405-409 225 1 408 181 410 406l0 0z m-361 135c-19-82 20-167 93-208 10-6 18-14 23-24 5-20 3-41-5-60-16-11-37-12-55-4-48 44-94 89-138 137-8 12-11 26-10 40-1 81 0 162 0 242 0 33 8 61 47 60 27-1 47-23 46-49 0-4 0-7-1-11 0-35 0-71 0-123z" horiz-adv-x="1061" />

<glyph glyph-name="origen" unicode="&#xe811;" d="M31 386h97c20 194 173 347 366 368v96h74v-96c193-21 345-173 367-366h96v-74h-96c-22-193-175-346-369-367v-97h-70v97c-194 21-347 175-368 369h-97v70z m463 288c-152-15-271-135-286-287h126v-74h-127c16-152 137-271 288-284v125h74v-127c152 15 271 136 285 288h-126v72h127c-15 152-135 272-287 287v-126h-74v126l0 0z m114-322c1-43-33-77-76-78-42-1-77 33-77 76-1 42 33 77 75 78 1 0 1 0 2 0 41 0 76-34 76-76l0 0z" horiz-adv-x="1061" />

<glyph glyph-name="settings" unicode="&#xe812;" d="M921 641c0-9-3-17-9-23-25-32-49-64-74-97-2-3-3-7-3-10 3-18 7-37 12-54 2-8 9-14 17-15 34-5 67-10 101-14 19 0 34-16 34-35 0-1 0-2 0-3v-97c2-17-10-32-27-34-1 0-2 0-3 0-35-4-71-8-107-12-5 0-10-4-11-9-5-10-9-20-13-30-2-12-3-24-3-36 0-3 1-5 3-7 24-32 49-64 74-96 13-12 13-33 1-46-1 0-2-1-2-2l-66-69c-10-13-28-15-40-5-2 1-4 2-5 4-29 28-62 52-97 72-3 2-7 2-10 2-18-4-36-8-54-12-11-3-19-12-19-23-3-36-7-71-10-107 1-17-12-32-29-33-1 0-2 0-3 0h-93c-18 0-32 13-33 30 0 1 0 3 0 4-2 38-8 76-18 113-1 3-2 6-5 8-12 10-27 17-43 19-14 1-27-2-38-9-30-19-59-41-85-65-10-13-28-14-40-5-2 2-4 4-5 6l-66 69c-13 11-15 32-3 46 1 0 1 1 2 1 25 32 49 64 73 96 2 3 4 7 4 11-1 21-6 41-14 60-2 7-9 12-16 13-36 3-71 7-107 11-16 1-29 15-28 31 0 0 0 0 0 0v103c-1 16 11 30 27 31 1 0 2 0 2 0 37 2 73 8 108 19 3 0 6 1 8 4 10 16 18 35 23 54 2 11-1 23-8 32-23 29-45 60-68 89-13 12-13 33-1 46 1 0 1 1 2 1l65 70c9 13 28 15 40 6 2-2 4-3 5-4 28-27 59-51 93-70 6-5 13-6 21-5 12 3 24 5 36 8 10 2 19 10 21 21 9 41 14 82 16 124-1 16 10 30 27 32 1 0 2 0 4 0h96c16 0 30-13 31-30 0 0 0-1 0-2 3-43 7-85 11-128 0-3 2-6 4-8 20-13 43-20 67-21 4 0 7 1 11 3 34 19 66 43 95 70 10 13 28 15 40 5 3-2 5-4 6-6 22-23 44-46 66-69 6-6 10-15 10-23z m-193-299c-5 108-97 192-206 187-109-5-193-97-188-206 5-103 90-186 194-187 112 1 201 93 200 204 0 1 0 1 0 2z" horiz-adv-x="1061" />

<glyph glyph-name="izq" unicode="&#xe813;" d="M685-113l-462 463 462 463 93-93-368-370 368-370z" horiz-adv-x="1000" />

<glyph glyph-name="aprobada" unicode="&#xe814;" d="M763 538a19 19 0 0 0 2-27l-308-347a19 19 0 0 0-4-3 18 18 0 0 0-3-2 19 19 0 0 0-8-2h0a19 19 0 0 0-11 4c0 0-1 0-1 1l-192 154a19 19 0 0 0 24 30l178-143 296 333a19 19 0 0 0 27 2m-263-612c-234 0-424 190-424 424s190 424 424 424 424-190 424-424-190-424-424-424m0 887c-255 0-462-208-462-463s207-463 462-463 463 208 463 463-208 463-463 463" horiz-adv-x="1000" />

<glyph glyph-name="ida-y-vuelta-1" unicode="&#xe815;" d="M246 209l158 159-50 48-242-242 241-243 53 48-156 156v0h699v74h-703m409 512l156-156h-699v-74h703c-55-56-106-107-158-159l50-48 242 243-241 241-53-47z" horiz-adv-x="1061" />

<glyph glyph-name="casa" unicode="&#xe816;" d="M646-125c0 67 1 132-1 196 0 31-4 62-12 92-11 45-55 74-101 67-46 5-88-27-95-74-6-38-9-77-9-116-1-54 0-108 0-167h-288v420h-125l516 534 515-532h-122v-420h-279l1 0z m-256 37c0 33-1 63 0 93 1 46 1 93 6 139 9 77 78 132 155 123 60-7 109-51 121-110 7-66 10-132 9-199 1-15 0-30 0-45h207v415l70 4-427 441-426-441 70-4v-416h214l1 0z" horiz-adv-x="1061" />

<glyph glyph-name="buscar" unicode="&#xe817;" d="M942-132c-28 3-54 16-72 38-44 44-88 89-131 133-19 19-38 38-57 57l-5 5-6-3c-67-42-145-64-224-65-15 0-30 1-45 2-95 11-183 56-246 127-66 72-104 165-108 262-2 197 139 368 333 403 24 3 49 5 74 5 128 2 248-61 319-167 45-61 72-133 77-209 3-76-16-152-53-219-14-19-9-46 10-60 0 0 0 0 0 0 49-47 97-96 144-143l25-25c43-44 48-83 14-118-12-14-30-23-49-23z m-235 255l6-6c16-15 31-30 46-46 52-51 101-101 152-149 6-5 14-7 21-7l0 0c4 0 8 0 12 1 4 1 7 1 10 1h3l9-1 0 10c-1 4-1 8 0 12 2 10 0 21-6 30-50 52-100 102-153 155-14 15-30 30-45 45l-6 7-49-52z m-255 670c-96 1-188-37-256-104-68-67-107-158-107-254-1-199 159-362 358-365h3c199-1 362 160 363 359 1 200-160 363-359 364h-2z m-6-654c-77 1-151 33-204 89-54 55-84 129-84 207 1 160 132 290 292 289h1c160-2 290-132 291-292-2-161-132-291-293-292l-3-1 0 0z m4 544c-139-1-251-115-250-254 1-136 110-246 247-249h0c68-1 133 26 181 74 48 49 74 115 73 183-1 137-114 247-250 246h-1z" horiz-adv-x="1061" />

<glyph glyph-name="money" unicode="&#xe818;" d="M16 611c11 10 25 13 39 10 110-13 223-15 334-7 137 10 273 22 410 27 73 2 147-8 220-13 13 1 25-9 26-22 0-2 0-4-1-6 0-165 0-330 0-495 3-13-6-25-18-28-5-1-9 0-13 1-115 14-230 16-345 8-134-10-269-22-404-27-73 0-147 4-220 12-10 3-19 7-28 13v527l0 0z m45-499c31-3 62-6 92-8 123-6 246-2 369 12 141 17 284 21 426 11 17-1 34-2 51-4v463c-13 2-25 4-36 5-158 10-317 6-475-13-92-7-184-10-276-11-50-1-100 5-151 7l0-462 0 0z m40 228c0 50 0 102 0 152 0 31 5 36 36 36 71 0 143-3 214 0 90 5 180 17 270 21 105 4 210 2 315 2 12 1 23-9 23-21 0-2 0-3 0-5 0-109 0-218 0-327 2-13-6-25-18-27-4-1-7-1-11 0-67 1-135 5-202 3-95-5-189-14-284-21-106-11-212-13-319-6-13 0-24 11-25 24 0 2 0 4 1 5 1 55 0 109 0 164l0 0z m44-149c18-3 35-4 52-4 110 5 219 9 328 17 124 13 249 17 373 11 6 0 11 0 17 0v295c-14 1-26 2-39 2-143 2-286-5-428-21-92-6-183-5-275-7-9-1-18 0-27 0l-1-293 0 0z m257 153c-1 60 47 108 106 109 59 0 108-47 108-106 1-59-47-108-106-109-1 0-1 0-1 0-59 1-107 48-107 106l0 0z m170 0c1 36-27 64-63 64-35 1-63-27-63-63-1-35 27-63 63-63 0 0 0 0 0 0 34-1 63 26 63 61 0 1 0 1 0 1l0 0z" horiz-adv-x="1061" />

<glyph glyph-name="promo" unicode="&#xe819;" d="M410-71l-368 375c57 57 116 116 174 176 74 74 145 151 221 222 26 25 58 42 93 49 79 10 159 17 239 20 75 4 115-42 110-118-3-45-7-90-10-135-1-5-3-10-5-14-33 10-53 45-45 78 4 27 5 54 5 80 5 24-10 47-33 52-6 1-11 1-17 0-80-5-159-12-239-20-19-3-37-11-51-25-118-119-235-238-352-358-3-3-5-7-7-11l291-296 375 383 46-25-427-433z m519 726c47-48 88-101 90-175 5-50-31-95-82-101-10-1-21 0-31 2-75 15-140 59-181 123-19 21-36 45-50 71-8 19-8 41 1 60 16 14 37 19 57 14 17-10 27-28 28-48 0-73 92-165 165-159 18-2 34 12 35 30 0 4 0 8-1 11-6 22-13 43-21 63-10 34-18 69-27 103l17 6z" horiz-adv-x="1061" />

<glyph glyph-name="tarjeta" unicode="&#xe81a;" d="M1042 141c-4-15-8-29-13-43-26-65-88-106-158-106h-681c-93-1-169 74-170 167 0 1 0 1 0 1 0 127 0 254 0 380 0 93 76 168 169 168h681c85 1 157-61 170-144 0-2 1-3 2-5l0-418 0 0z m-43 313h-937v-12c0-88 0-175 0-262 0-9 0-17 1-25 3-69 61-122 130-120 225 0 450 0 675 0 13 0 26 2 38 5 57 16 96 69 93 129 0 92 0 184 0 275l0 10 0 0z m-936 86h935c0 70-56 126-126 126 0 0-1 0-1 0-227 0-454 0-680 0-70 1-127-55-128-124 0 0 0-1 0-2l0 0z m425-337h-340v42h340v-42z m-340 85v40h169v-40h-169z" horiz-adv-x="1061" />

<glyph glyph-name="total" unicode="&#xe81b;" d="M225-150c-11 5-22 10-33 16-22 14-34 38-34 63 0 237 1 475 0 712 1 46 38 82 84 82 37-1 75 0 112 0 5-1 10 2 12 7 6 15 13 29 20 44 3 10 14 16 24 15 80 0 160 0 240 0 12 1 22-5 26-16 6-14 13-28 19-43 2-5 6-8 12-7 38 0 76-1 114 0 45-1 81-36 82-82 0-236 0-473 0-709 0-37-25-70-61-79-2-1-4-2-6-3l-611 0 0 0z m118 830c-4 0-7 0-9 0-31 0-63 0-94 0-28 0-39-11-39-38 0-160 0-320 0-480 0-79 0-158 0-236-1-17 11-31 27-33 1 0 3 0 4 0 7-1 15-1 23-1 105 0 210 0 315 0 82 0 165 0 247 0 32 0 43 11 43 42v708c0 28-11 38-39 38-31 0-62 0-92 0-4 0-7 0-11 0 9-19 16-38 26-55 7-11 4-25-6-32-5-4-11-5-17-4-128 1-255 1-382 0-13-2-24 6-26 19-1 6 0 11 3 16 10 18 18 37 27 56l0 0z m25-48h326c-17 36-33 71-49 107-2 6-7 9-13 8-66 0-131-1-196 0-10 1-19-4-22-14-15-34-31-67-46-101l0 0z m163 218c21 0 43 0 64 0 12 1 21-7 23-18 0-1 0-1 0-2 1-11-7-21-18-22-1 0-2 0-3 0-44 0-88 0-133 0-11 0-20 8-21 19 0 1 0 2 0 3 0 11 10 20 21 20 0 0 1 0 1 0 22 0 44 0 66 0z m-45-695c31 27 61 54 92 80 24 21 48 42 71 62 8 9 22 10 30 2 1-1 2-1 3-2 7-9 7-22-2-29-1-1-2-1-2-2-60-52-119-103-178-155-8-9-22-10-31-3-2 2-4 4-5 6-27 34-55 68-82 102-9 7-10 21-2 29 1 2 2 3 3 4 10 7 24 5 31-5 1-1 1-1 2-2 21-27 43-53 64-80 2-3 4-5 6-7l0 0z" horiz-adv-x="1061" />

<glyph glyph-name="canjee" unicode="&#xe81c;" d="M535 727c211-1 382-172 381-383-1-211-172-382-383-381-211 0-382 172-381 383 0 211 172 382 383 381 0 0 0 0 0 0z m-340-366c5 4 10 7 16 10 7 4 15 5 22 4 6-6 9-15 9-24-1-10-5-19-11-27-6-9-13-18-22-25-7-5-10-15-7-23 39-184 220-301 404-262 121 25 218 114 254 232 3 7 2 15-3 21-8 10-14 22-18 34-2 12-13 21-26 21-17 1-35 1-52 2-20 2-40 3-60 5-15 3-31 0-43-8-9-7-13-18-9-29 5-9 15-12 24-8 11 2 21 4 32 6 6 0 12 0 18 0-1-4-3-8-5-11-39-51-65-111-79-173-6-23-16-45-29-65-10-17-31-22-48-13-4 3-8 6-11 10-11 12-19 26-23 41-8 30-14 61-18 92-4 35-17 51-52 60-16 3-33 6-48 10-53 12-77 45-75 99 3 50 34 85 82 86 20 0 39-4 58-11 20-8 39-22 59-32 7-4 16-5 24-4 22 10 43 21 65 32 5 2 10 5 16 9l-15 13c4 5 7 9 10 14 4 4 8 8 11 12 9 12 6 20-8 23-13 4-26-3-30-15-5-11-8-24-13-35-8-19-19-22-33-8-13 13-24 27-35 42-4 5-7 11-11 16-16 18-30 18-45-1-5-8-10-14-16-20-11-11-27-14-40-9-4 3-6 6-8 9 3 3 5 5 8 6 7 3 14 5 23 8-5 4-8 9-11 14-2 4-2 9-1 14 21 30 62 39 94 21 22-14 36-8 45 17 4 11 0 17-12 19-7 0-15 1-22 3-10 2-12 9-4 14 9 7 18 12 29 16 34 12 69 22 104 33 8 1 15 8 16 17 1 8-6 15-13 16-112 45-239 28-335-46-2-2-5-4-9-8 3 0 6-1 9-1 7-2 14-4 21-6-2-7-5-13-8-19-25-26-50-52-77-76-10-7-21-13-33-17-3-1-5-3-7-6-16-37-26-78-28-119l0 0z m653 246l64 60c-14 12-26 24-39 34-4 2-9 2-13 1-8-5-15-9-23-15l-15 12c24 19 46 38 52 71l15-11c0-1 1-2 1-3-10-33-10-33 19-51 7-4 13-9 21-13 14 26 27 52 41 79l17-10c-6-22-13-43-19-65-8-28-8-28 16-47 11-8 20-18 29-28 3-4 6-9 7-14l-2-4c-11 3-21 6-31 10-4 2-8 4-11 7-12 8-23 22-35 22-11 0-24-13-36-20-10-7-21-13-31-21-12-9-20-7-27 6l0 0z m-666-625l25 24c19-21 37-41 56-63l-24-24-57 63z m579 832l74-41-20-35-74 41 20 35z m-184 36v-39h-84v39h84z m-435-835c-15 25-29 48-43 73l34 20 44-72-35-21z m-29 130l-38-11c-8 26-16 53-24 81l39 11 23-81z m-73 122v82h38v-82h-38z m77 340l35-19-41-74-35 19 41 74z m197 184c7-12 13-23 21-35l-73-43c-7 12-13 22-21 34l73 44z m-169-136l61 54 26-25-63-56-24 27z m474 156c3 13 6 25 10 39l82-21-10-39-82 21z m-336-920l20 35 74-41c-7-12-13-23-20-35l-74 41z m-184 583c-7-28-13-54-20-82l-39 10 20 82 39-10z m353 326l-81-23c-4 12-7 25-11 38l81 24c4-14 7-26 11-39l0 0z" horiz-adv-x="1061" />

<glyph glyph-name="consumos" unicode="&#xe81d;" d="M659 544c27 13 52 28 79 38 44 17 93 15 136-7 14-6 26-15 18-32-7-18-22-15-36-8-29 16-64 19-95 8 4-2 9-4 14-5 33-8 63-25 87-48 12-11 18-24 5-37-13-12-25-6-36 5-28 29-68 43-108 39 9-6 15-9 21-13 94-56 167-132 205-237 24-66 25-138 4-204-23-79-83-119-157-136-57-13-115-21-173-24-101-5-203-7-303 11-43 8-85 21-124 40-78 39-100 111-103 191-4 108 42 197 112 276 41 49 94 86 154 108 15 5 11 16 10 24-6 41-25 79-54 109-12 12-23 24-34 37-24 33-10 67 31 73 27 4 53 6 81 6 17 0 34 9 45 23 40 53 84 50 130 5 15-17 40-23 62-15 17 4 34 7 52 8 37 4 56-21 43-56-6-14-13-28-22-40-28-39-44-85-45-132 0-2 1-5 1-7z m-130-625c0 1 0 3 0 5 84 0 168 1 250 22 60 16 112 43 133 107 16 49 18 101 5 150-39 135-132 221-259 273-9 2-17 2-25-2-73-35-157-38-233-8-10 3-22 2-32-1-119-45-245-204-231-350 6-60 22-113 79-142 28-16 59-27 91-32 73-11 148-15 222-22z m-132 689c6-32 11-62 18-92 2-6 7-11 14-13 58-21 122-18 178 8 4 1 8 5 9 10 2 36 3 72 4 107-43-30-83-25-119 20-11 15-23 4-32-4-21-20-43-37-72-36l0 0z m-70 106l-2-6c4-6 8-13 14-19 36-43 58-46 101-11 40 31 73 28 105-12 7-12 23-17 36-9 1 0 2 1 3 1 31 23 61 47 92 71l-3 6c-6-1-12-2-19-3-47-16-88-12-125 29-22 25-35 22-57-7-19-26-50-40-82-40-21 0-42 0-63 0l0 0z m206-420v-91c44-11 91-22 88-81-3-52-43-67-88-74-1-9-1-18-1-28h-23c-1 9-1 17-2 28-48 7-85 29-90 83 27 8 29 7 40-17 9-21 28-29 51-35 0 30 0 58-1 86-1 5-4 9-9 11-7 3-15 4-23 6-35 12-50 29-51 60-1 32 18 61 48 72 11 4 22 7 34 10 1 6 2 14 3 22h22c1-8 1-15 1-24 40-3 72-33 78-72-19-3-35-6-44 17-4 10-18 16-33 27l0 0z m0-213c32 3 51 20 50 45-4 24-26 41-50 37 0 0 0 0 0 0v-82z m-26 209c-32-5-46-20-44-44 1-20 17-32 44-34v78l0 0z" horiz-adv-x="1061" />

<glyph glyph-name="utilice" unicode="&#xe81e;" d="M32 410c47 35 95 69 141 104 33 25 64 50 95 76 26 22 52 36 87 28 7 0 14 4 19 9 19 22 47 34 76 33 153-1 307-3 461 0 57 1 96-17 118-70v-346c-3-5-7-10-10-15-14-29-43-46-75-46-51 0-102 0-153 1-11 2-22-4-25-15 0-2 0-4 0-6-3-31-17-59-40-79-19-17-46-24-72-19-10 2-20-1-28-6-43-31-88-26-123 17-41-19-82-29-117 16-104-27-212-18-318-27-12 1-24 4-36 9v19c8 5 16 8 24 11 73 4 146 11 219 12 63 2 116 19 158 67 27 33 62 58 102 71 24 8 46 20 67 35 25 16 46 36 47 69 3 19-9 37-28 40-5 1-11 0-17-1-15-3-29-8-43-15-70-31-139-64-208-96-13-6-29-13-38 5-9 18 6 24 18 33 9 6 15 15 16 25 2 70 1 140 1 209 0 21-10 27-29 18-7-4-13-8-18-12-77-58-153-115-229-173-12-12-30-12-41-1-1 0-1 0-1 1v19z m956 68h-594v-126l14 6c57 26 114 55 174 76 71 25 124-28 105-101-10-43-43-69-79-90l-26-14 3-5h97c84 0 168 0 251 0 33 0 54 15 55 43 1 70 0 140 0 211l0 0z m-2 85c1 35-21 56-58 57-62 0-125 0-188 0-95 0-192 0-287 0-29 3-55-18-58-47 0-3 0-7 0-10l591 0 0 0z m-439-380c-4-21-7-40-9-59-5-18 6-37 24-42 1 0 2 0 3 0 17-4 46 11 48 28 4 24 3 48 5 73l-71 0 0 0z m180 0c-20 0-36 1-53 0-6 0-12-4-14-9-4-16-6-32-5-48 1-21 13-27 32-18 30 14 35 42 40 75l0 0z m-224 3c-7-3-14-6-20-10-17-16-33-32-49-49-4-3-7-8-8-13 3-6 8-9 14-11 11 0 22 2 32 6 30 15 31 43 31 77l0 0z" horiz-adv-x="1061" />

<glyph glyph-name="cerrar" unicode="&#xe81f;" d="M997 736l-82 83-385-386-383 386-83-83 384-386-384-386 82-83 384 386 385-386 82 83-384 386 384 386z" horiz-adv-x="1061" />

<glyph glyph-name="visa" unicode="&#xe820;" d="M949 222h-62c-2 7-4 15-5 22 0 4-2 8-2 12 0 2-2 3-3 3-1 0-1 0-1 0h-72c-10 0-10 0-14-10-3-8-6-16-10-24 0-2-2-3-3-3-22 0-43 0-66 0 1 1 1 2 2 3 36 85 73 169 109 253 1 2 3 3 5 3 22 0 44 0 65 0 2 0 4-1 5-3 0 0 0 0 0 0 11-56 22-112 34-167l17-85c1-2 1-3 1-4z m-99 183h-1c-12-32-24-64-36-96h56c-6 32-13 64-19 96z m-127 68c-4-19-8-38-12-57l-13 8c-20 10-42 11-62 5-9-2-17-9-18-19-1-5 1-11 5-14 6-5 13-9 20-14 12-7 26-14 38-21 11-7 20-17 26-28 8-18 8-39-2-57-12-21-30-38-53-47-25-13-54-17-82-13-15 2-30 5-43 11-2 0-3 1-4 2l-2 0 12 54c7-2 14-5 21-7 20-6 40-8 61-6 8 1 16 4 23 9 7 6 8 17 3 26-3 5-8 10-13 13-13 7-26 13-38 20-37 19-52 63-34 100 7 13 17 24 30 31 17 10 35 15 54 17 28 2 55-2 81-12l2-1z m-299 8c-11-26-21-52-31-77-24-60-48-119-72-178-1-3-3-5-6-5-22 1-45 1-67 0-3 0-5 1-5 4 0 0 0 0 0 0-18 67-35 135-53 202-1 1-1 2-1 3l0 1c7-4 14-9 20-14 32-25 56-58 72-95 3-7 4-14 5-21 1-1 1-2 1-4 4 9 6 17 9 25 18 52 35 103 53 155 0 3 3 4 5 4 22 0 44 0 65 0l5 0 0 0z m-14-259c13 86 27 172 40 259h70c-14-87-27-173-42-259h-68l0 0z m-296 258c35 0 70 0 104 0 16 1 31-9 37-24 2-6 3-11 4-17 6-32 13-64 19-96 0-1 0-1 0-2 0 1-1 2-1 2-11 29-29 54-52 74-32 27-69 48-109 62l-2 1 0 0z m7-495c-27-1-54 10-74 30-16 15-26 35-29 56-1 7-2 15-1 22 0 92 0 187 0 278 0 79 0 159 0 239-1 27 10 54 29 74 15 16 35 26 57 29 7 1 14 1 21 1h817c27 1 54-10 74-29 15-15 26-35 29-57 1-7 1-14 1-20 0-82 0-163 0-244 0-90 0-182 0-273 1-28-9-55-29-75-15-16-35-26-57-29-7-1-14-2-21-2l-817 0 0 0z m-1 676c-1 0-3 0-4 0-10-1-19-4-26-9-13-10-21-26-20-42 0-135 0-272 0-404v-115c0-2 0-3 0-5 0-10 4-19 9-27 10-13 25-20 42-20h229 590 5c9 1 18 4 26 9 13 10 20 25 20 41v522c0 1 0 2 0 4-1 9-4 18-9 26-10 13-26 21-43 20l-819 0 0 0z" horiz-adv-x="1061" />

<glyph glyph-name="mastercard" unicode="&#xe821;" d="M532 545c106-74 132-220 58-326-53-76-148-114-239-95-53 10-100 39-134 81-81 100-66 247 34 329 81 66 195 70 281 11z m-24-317c-14 17-24 37-32 58h4c23 0 45 0 68 0 1 0 2 1 3 2 5 10 8 21 10 32h-93c-5 22-5 44 0 66h94c-4 11-7 20-10 30 0 3-3 4-5 4-22 0-45 0-67 0h-4c7 20 18 40 32 57-69 61-175 55-236-14-61-69-54-174 15-235 63-56 158-56 221 0l0 0z m74-19c79-46 181-19 227 60 46 80 19 182-60 228-52 30-116 30-167 0 66-85 66-204 0-288l0 0z m-462-225c-28-1-54 10-74 30-16 15-26 35-30 57-1 7-1 14-1 21 0 93 0 188 0 279 0 80 0 160 0 240-1 28 10 54 29 74 15 16 36 26 57 29 7 1 14 1 21 1h820c28 1 55-10 74-29 16-15 27-35 29-57 1-7 2-14 2-20 0-82 0-164 0-245 0-90 0-183 0-274 1-28-10-55-30-75-15-16-35-26-57-29-7-1-14-2-21-2l-819 0 0 0z m-1 678c-1 0-3 0-5 0-9-1-18-4-25-10-14-10-21-25-20-42 0-135 0-272 0-405v-115c0-2 0-3 0-5 0-10 3-19 9-27 10-13 26-20 42-20h229 592 5c10 1 19 4 26 9 13 10 21 25 20 41 0 126 0 253 0 379v144c0 1 0 3 0 5 0 9-3 18-9 25-10 14-26 21-42 20l-822 1 0 0z" horiz-adv-x="1061" />

<glyph glyph-name="buscar-productos" unicode="&#xe822;" d="M635 184c-77-60-174-86-270-75-95 11-183 59-242 134-117 144-107 352 24 484 128 131 334 147 481 37 162-120 196-348 76-509-2-3-4-5-6-8 10-9 19-18 29-27l66-67c25-23 49-47 73-71 27-28 55-56 83-84 20-19 40-39 59-59 17-18 16-47-3-64-12-12-30-15-46-9-8 3-16 8-22 15l-49 49-79 78c-21 22-43 44-65 65-20 20-40 41-60 61-17 17-33 33-49 50z m-501 288c-1-152 122-276 274-276 151-1 275 121 276 273 1 151-121 275-272 276-152 2-277-120-278-272 0 0 0-1 0-1z" horiz-adv-x="1061" />

<glyph glyph-name="audio-tech" unicode="&#xe823;" d="M1061 77c-9-15-25-24-42-22-326 1-651 1-977 0-17-2-33 7-42 22v31c143 0 286 0 429 0 12 0 27 6 30-14 5-4 12-6 18-6 36-1 71-1 106 0 7 0 14 3 19 8 3 19 17 12 27 12 144 1 287 1 431 1l1-32 0 0z m-531 63c-118 0-236 0-355 0-38 0-47 9-47 46 0 137 0 275 0 412 0 38 9 47 46 47 238 0 476 0 713 0 37 0 46-10 46-45 0-138 0-277 0-415 0-35-9-45-45-45-119 0-239 0-358 0l0 0z m-359 44h718v417h-718v-417z" horiz-adv-x="1061" />

<glyph glyph-name="decoracion" unicode="&#xe824;" d="M547 344v-462h224c3 0 6 0 8 0 8 0 15-6 15-14 1-9-5-16-13-17-5-1-10-1-15-1h-479c-9-1-18 5-20 14 0 1 0 2 0 2 0 10 8 17 17 16 1 0 2 0 3 0h227v462h-12c-104 0-208 0-312 1-4-1-9 0-13 2-8 4-12 14-7 22 0 0 0 1 1 2 22 60 43 121 65 181 30 80 61 159 91 238 13 34 45 57 81 58 24 3 48 1 72 1 63 0 125 0 188-1 7 0 14-2 20-5 24-16 43-39 53-66 19-50 37-99 55-148 31-84 62-169 93-253 1-2 2-5 3-8 4-8 0-18-8-22-3-1-6-2-9-2-33 0-65 0-98 0l-220 0-10 0 0 0z m307 33c-2 4-3 7-4 11-13 34-25 69-37 103-33 89-66 176-99 264-7 22-19 41-36 55-5 4-11 6-17 7-40 0-79 0-118 0-40 0-79 2-118 1-33 5-64-16-71-48-48-128-96-256-143-385-1-2-2-5-3-9l646 1 0 0z m-110-165c0 32 0 63 0 94-2 9 4 18 12 20 2 0 3 0 5 0 9 0 16-8 16-17 0-1 0-2-1-3 0-62 0-125 0-188 2-9-4-18-14-19 0 0-1-1-1-1-10 1-17 8-17 17 0 1 0 2 1 3-1 32-1 63-1 94l0 0 0 0z" horiz-adv-x="1061" />

<glyph glyph-name="deportivos" unicode="&#xe825;" d="M0 423l82 59c11 53 18 59 98 66 1 11 1 23 3 35 3 35 33 60 67 59 35 1 63-26 64-61 0 0 0 0 0-1 2-52 1-105 1-161h431c0 44 0 90 0 136 0 57 21 86 63 88s66-26 70-82c1-4 1-8 3-11 77-11 88-20 96-69l83-57v-147l-82-58c-12-50-19-57-99-68 0-10 0-21-2-31-2-35-30-62-64-62-36-2-66 26-67 62 0 1 0 1 0 2-2 53 0 105 0 161h-431c0-47 0-92 0-138 0-56-23-86-65-87s-65 27-68 84c-1 3-1 5-2 7-24 3-47 10-69 20-15 16-27 35-35 56l-77 52v146l0 0z m216-71c0-72 0-144 0-215 0-25 4-46 33-46 30 1 33 22 33 46 0 142 0 285 0 427 0 24-4 46-33 46-30-1-34-23-33-46 0-71 0-141 0-212z m563 2c0-73 0-146 0-219-5-19 6-37 24-43 3 0 5 0 8-1 29-1 35 19 35 44-1 144 0 287-2 431-2 18-14 34-30 42-28 6-35-18-35-42 0-71 0-141 0-212l0 0z m-36-34v60h-426v-60h426z m-562 190c-58 6-64 1-64-50 0-73 0-147 0-220 0-50 7-56 64-49v319z m700-321c57-2 64 4 64 55 0 71 0 143 0 215 0 50-9 56-64 51v-321z m-800 82v159c-18 7-38-1-45-19-3-6-3-12-2-19-1-28-1-56 0-85-3-18 9-36 28-39 6-1 13 0 19 3l0 0z m898 0c18-8 39 0 47 19 2 6 3 14 2 21 0 27 0 54 0 81 3 19-9 36-28 40-7 1-14 0-21-3l0-158 0 0z" horiz-adv-x="1061" />

<glyph glyph-name="joyas" unicode="&#xe826;" d="M304-150c-4 13-7 26-8 40-1 51 0 102-1 154-1 11-5 22-14 31-152 125-173 351-47 503 14 17 30 33 47 48 8 8 13 19 14 30 1 52 0 103 1 154 1 14 4 27 8 40h390c5-11 8-22 10-34 1-53-1-106 1-159 1-12 6-24 15-32 151-128 171-354 44-505-13-16-28-31-44-45-9-8-14-20-15-32-2-53 0-106-1-159-2-12-5-23-10-34l-390 0 0 0z m209 811c-165 6-306-119-319-284-18-169 106-320 274-337 169-17 320 106 337 275 1 5 1 10 2 15 12 170-115 318-285 330-3 1-6 1-9 1z m-176-768h325v143c-102-53-223-53-325 0v-143l0 0z m325 914h-325v-143c102 53 223 53 325 0v143l0 0z m206-456c-1 13-1 26 1 38 5 9 12 17 20 23 8-5 15-12 19-20 3-28 3-55 0-83-5-8-12-16-20-21-8 6-14 13-19 22-2 13-2 27-1 41l0 0z m-124-3c-4-135-117-241-252-237-135 4-241 117-237 252 4 134 116 240 250 237 135-4 242-117 239-252l0 0z m-40 2c-2 113-96 203-209 201-113-2-202-96-200-209 2-111 93-200 204-200 114 0 206 93 205 207 0 0 0 1 0 1l0 0z m-204 28c35 36 68 70 100 103 11 12 23 21 37 7 12-14 2-25-8-36-37-38-75-75-112-114-7-9-20-11-30-5-2 2-3 3-5 6-25 25-50 50-75 76-9 6-12 19-6 29 7 9 20 12 29 6 3-2 5-4 7-7l63-65z" horiz-adv-x="1061" />

<glyph glyph-name="regalos" unicode="&#xe827;" d="M100-134v502h-36v223h201c-19 16-38 33-55 51-27 32-37 75-29 116 8 42 44 74 87 75 47 6 93-15 120-53 23-30 41-64 62-96 12-19 26-37 40-54 19-22 51-25 73-7 2 2 5 4 7 7 23 31 45 63 64 96 20 39 50 72 87 94 31 16 67 19 100 7 48-17 71-70 57-129-9-38-32-70-65-91-6-4-12-9-17-15h201v-223h-36v-503h-861z m43 502v-461h268v461h-268l0 0z m507 0v-461h268v461h-268z m-45-461v641h-150v-641h150z m-501 642v-138h307v138h-307z m546 0v-137h308v137h-308l0 0z m-204 64c-29 46-55 90-83 133-16 25-43 42-73 45-32 7-63-13-70-45-2-9-2-19 1-28 5-36 28-66 60-82 52-31 107-23 165-23l0 0z m169-1c47-3 94 1 140 13 50 14 85 59 85 111 1 27-18 50-45 54-39 7-77-11-97-44-29-42-54-87-83-134l0 0z" horiz-adv-x="1061" />

<glyph glyph-name="reserva" unicode="&#xe828;" d="M548 73v-186h14c48 0 97 0 145 0 10 1 20-6 21-16 1-11-7-20-17-21-1 0-3 0-4 0-50 0-101 0-151 0-67 0-134 0-201 0-5 0-9 1-14 3-8 3-11 12-9 20 2 9 10 15 20 14 38 0 76 0 114 0h45v185c-22 4-45 6-67 12-161 39-278 177-291 342-3 65 3 131 20 195 15 72 38 143 66 211 3 11 14 18 25 17 184 0 367 0 551 0 11 3 22-4 24-16 1-1 1-2 1-3 29-97 51-195 65-296 17-101-5-205-61-290-63-99-168-161-285-169-4-1-7-2-11-2z m308 546c-5-1-8-1-10-2-94-31-195-36-292-14-71 19-145 27-219 23-41-4-83-13-123-27-4-2-8-5-9-9-13-53-18-108-15-162 14-166 144-299 310-317 141-13 276 63 338 190 30 60 42 127 35 193-4 41-10 83-15 125l0 0z m-645 23l4-2c2 0 4 1 6 1 90 26 185 31 276 12 47-9 95-19 142-24 66-6 131 1 194 22 10 4 15 7 11 19-2 7-4 14-5 22-10 40-21 80-31 120h-520c-19 0-19 1-26-18-17-50-34-101-51-152l0 0z m12-192c0 3 0 7 0 10 0 10 7 19 17 19 10 0 19-8 19-19 0 0 0 0 0 0 1-21 4-41 7-62 26-122 132-210 257-215 1 0 3 0 4 0 11 1 20-6 21-16 1-11-7-20-17-21-1 0-3 0-4 0-34 0-68 7-100 18-120 46-200 158-204 286l0 0z" horiz-adv-x="1061" />

<glyph glyph-name="canje" unicode="&#xe829;" d="M7 394c26 53 52 105 78 157 6 13 16 24 27 32 66 50 132 99 198 149 9 7 20 11 31 10 182 0 363 0 544 0 6 0 13 0 19 1 9 1 18-4 23-11 41-68 82-136 124-204 7-10 4-24-7-31 0 0 0-1 0-1-36-35-71-70-107-105-6-5-8-12-8-19 0-59 0-118 0-177 0-11-3-22-11-30-53-65-106-130-159-196-5-7-14-11-22-11h-617c-3 0-6 0-9 0-12 1-20 10-20 21-1 3-1 7 0 10v410l-47-23c-10-9-25-7-33 3-2 2-3 4-4 7l0 8 0 0z m126 141v-535h586v535h-586l0 0z m44 45l1-3h7c180 0 359 0 538 0 6 1 11 3 15 7 37 35 74 72 110 108 3 2 5 4 8 8-4 0-6 0-8 0-168 0-335 0-503 0-4 0-9-2-13-5-43-31-85-63-128-95l-27-20z m692-196l137 135c-33 56-67 112-101 168-2-1-3-1-4-2-43-43-87-85-130-128-4-4-2-7 0-11 17-28 35-56 51-85 16-25 32-51 47-77l0 0z m18-44c-19-15-31-13-43 5l-75 124c-2 3-4 5-7 10v-438c1-1 2-2 3-2 0 1 1 3 2 4 38 48 77 96 116 144 2 4 4 8 4 12 0 37 0 73 0 109l0 32 0 0z m-811 99c16 5 19 11 13 26-5-9-9-17-13-26l0 0z m349-27c-33 0-67 0-101 0-11-2-21 6-23 17-1 12 7 22 18 23 1 1 3 1 4 0 13 0 26 0 38 0 54 0 108 0 162 0 5 0 10 0 15-2 10-4 16-15 12-25-2-5-6-9-12-11-5-2-10-2-15-2-32 0-65 0-98 0l0 0z" horiz-adv-x="1061" />

<glyph glyph-name="categoria" unicode="&#xe82a;" d="M26 543c3 9 10 16 18 20 157 76 314 153 471 230 9 5 21 5 31 0 158-77 315-154 473-231 12-5 19-18 15-30-2-7-8-13-15-16l-140-69-6-3c5-2 10-4 14-7 43-21 87-42 131-63 4-2 8-6 11-9 9-10 7-24-2-32-1-1-3-2-4-3-12-7-25-13-38-19l-108-53c-1 0-2-1-5-2l79-39 67-33c6-2 12-8 15-15 4-11-1-24-12-29-21-10-42-21-63-31-138-67-275-134-412-202-10-5-22-5-32 0-156 77-314 154-471 231-8 4-15 11-17 19v9c3 9 10 16 19 20 46 22 92 44 138 67 1 1 3 2 5 3l-5 3c-46 22-92 45-139 67-8 4-16 11-18 20v10c3 9 11 16 20 19 46 22 91 45 137 68l5 2-6 3c-45 22-91 45-137 67-9 4-16 11-19 20l0 8 0 0z m933-5c-2 1-3 2-5 3-139 68-278 137-418 205-3 2-7 2-11 0-130-64-260-128-391-192l-32-15 6-3c139-69 279-137 418-205 3-2 6-2 9 0 122 60 245 120 368 181l56 26z m0-188c-3 1-4 2-6 3-43 21-85 41-128 62-3 3-8 3-11 0-90-44-180-87-270-132-8-4-18-4-27 0-89 45-179 88-269 132-4 3-8 3-12 0-37-18-75-36-112-55l-21-10 6-3c139-68 278-136 416-204 4-2 8-2 12 0 125 61 250 123 376 184l46 23z m-1-189c-1 1-2 1-2 2-45 21-89 43-133 65-2 1-5 1-7 0-19-9-37-18-56-28-72-35-144-70-215-105-9-5-20-5-29 0-90 44-180 88-270 132-3 2-6 2-9 0-43-21-86-42-129-63-1-1-3-2-5-3l5-3c139-68 279-136 418-205 3-1 6-1 10 0 129 64 258 127 387 190l35 18z" horiz-adv-x="1061" />

<glyph glyph-name="check" unicode="&#xe82b;" d="M1013 635l-428-421-222-217c-2-3-4-6-7-9-4 4-6 6-8 8l-291 286c-3 3-6 5-9 7v4c3 3 7 5 10 9 22 21 44 42 66 64l229-226c195 191 389 381 582 572 24-24 46-46 69-68 2-2 6-4 8-7l1-2 0 0z" horiz-adv-x="1061" />

<glyph glyph-name="eliminar" unicode="&#xe82c;" d="M201 690c-12 0-22 0-32 1-4 0-6 3-7 6-1 10-1 21-1 32h195c0 15 0 29 0 42 0 37 25 68 60 76 7 2 14 3 22 3 62 0 125 0 188 0 38 1 71-26 78-64 1-14 2-28 1-42v-14h195v-39h-37c-1-12-2-22-3-33-5-98-9-196-14-294-5-109-11-219-17-328-2-38-3-76-6-114-3-41-37-72-78-72-87 0-174 0-260 0h-163c-43-2-80 32-81 76 0 2 0 3 0 5-4 83-9 165-14 247-3 70-6 140-10 210-4 82-9 165-13 248-1 17-2 35-3 54z m39 0v-11c3-70 7-141 11-211l8-153c3-72 7-144 11-217 2-56 5-112 8-168 0-22 17-40 39-41 1 0 3 0 4 0 47 0 94 0 141 0 94 0 188 0 282 0 22-1 40 16 41 37 4 54 6 108 8 161 4 57 6 114 9 171 4 73 7 145 11 218 2 46 5 92 7 139 2 24 2 49 4 74l-584 1 0 0z m155 41h273c0 14 1 28 0 42-1 20-17 37-37 37-67 1-133 1-199 0-18 0-34-13-36-31-2-16-2-32-1-48l0 0z m154-760h-37v637c2 1 4 1 5 1 11 0 21 0 32 0v-638l0 0z m119 640l38-3c-14-213-27-425-39-639l-38 2c13 214 26 426 39 640l0 0z m-312-4l38 3c13-213 27-425 40-638l-38-3c-13 212-26 425-40 638l0 0z" horiz-adv-x="1061" />

<glyph glyph-name="envio" unicode="&#xe82d;" d="M0 678c14 29 45 46 77 42 169-1 338 0 507 0 32 7 65-13 72-45 2-8 3-16 1-23 0-24 0-48 0-72 58 0 113-1 168 1 41 4 81-14 107-45 35-41 68-82 99-125 12-20 22-41 30-62v-223c-19-39-64-58-106-46-13-57-63-98-122-100-61-5-116 35-130 95-22 6-40 11-59 16-4 1-8 0-13-1-14-5-29-7-45-9-54-1-108-1-162 0-13 2-25-7-28-20-16-47-60-79-110-81-47-8-95 16-116 59-12 33-47 52-80 41-2 0-3 0-5 0-35-6-71 13-84 46v552h-1z m149-560c17 70 87 114 157 97 48-11 85-48 96-95 3-1 6-1 8-2 46 0 93 0 139 0 72 0 67-6 67 64 0 155 0 311 0 466 0 26-5 33-28 33-173 0-346 0-519 0-12 2-24-5-26-17-1-3-1-6-1-8 1-170 1-341 0-511-1-14 9-26 22-27 2-1 5-1 7 0 26 0 51 0 78 0l0 0z m805 1c65-2 65-2 65 55v126c-71 0-139 0-206 0-35-3-66 22-69 57 0 2 0 4 0 6-1 21 0 42 0 63-6 35 18 69 54 75 8 1 16 1 24-1 28 0 55 0 86 0-16 28-46 44-78 41-45 0-89 0-134 0-32 0-37-5-37-35 0-118 0-235 0-353 0-31 8-36 43-33 13 60 68 102 129 99 59-1 110-42 123-100l0 0z m64 220c-16 44-42 84-75 118-4 2-9 3-13 3-40 0-80 0-120 0-12 1-24-8-25-20-1-1-1-2 0-4-1-24-1-48 0-73-1-13 10-23 23-24 1 0 2 0 3 0 67 0 136 1 207 0l0 0z m-742-320c44 3 78 41 75 85-2 44-40 78-85 75-42-2-75-37-75-79 2-46 39-82 85-81z m551 0c44 2 78 40 76 84-3 45-40 79-85 76-42-2-76-37-76-80 3-46 40-80 85-80z" horiz-adv-x="1061" />

<glyph glyph-name="facturacion" unicode="&#xe82e;" d="M163 791c245 0 490 0 735 0 0-294 0-588 0-882-245 0-490 0-735 0 0 294 0 588 0 882z m74-809c196 0 392 0 587 0 0 246 0 491 0 735-196 0-391 0-587 0 0-245 0-489 0-735z m73 515c0 24 0 49 0 73 147 0 294 0 441 0 0-24 0-48 0-73-147 0-294 0-441 0z m257-147c0-25 0-49 0-74-85 0-171 0-257 0 0 25 0 49 0 74 86 0 171 0 257 0z m-257-220c0 24 0 48 0 73 86 0 171 0 257 0 0-25 0-49 0-73-85 0-171 0-257 0z m331 147c0 24 0 48 0 73 37 0 73 0 110 0 0-24 0-49 0-73-36 0-73 0-110 0z m0-147c0 24 0 48 0 73 37 0 73 0 110 0 0-24 0-49 0-73-36 0-73 0-110 0z" horiz-adv-x="1061" />

<glyph glyph-name="resumen" unicode="&#xe82f;" d="M986 721v-81h-496v81h496z m-496-411v81h495v-81c0 0-495 0-495 0z m496-250v-81h-495v81h495z m-782 497l-128 123 61 57 67-65 147 133c19-20 37-40 56-60l-203-188z m146-83l57-60-203-188-129 124 60 56 69-65 146 133z m-213-399c20-19 43-41 67-64l147 133 57-60-204-189-127 123 60 57z" horiz-adv-x="1061" />

<glyph glyph-name="seguro" unicode="&#xe830;" d="M99 767c74 14 147 29 220 43 66 13 133 25 199 39 19 4 37-3 55-7 126-24 250-48 376-72 10-2 13-7 13-17 0-98 0-196 0-295 0-141-48-264-136-373-77-97-173-172-282-231-10-5-17-6-27-1-136 74-251 171-334 303-56 92-85 192-85 300 0 100 0 200 0 300 1 3 1 7 1 11z m45-38c0-4 0-8 0-11 0-87 0-174 0-260-1-111 33-212 95-303 73-108 171-189 283-252 6-4 11-4 17 0 97 55 183 123 252 211 81 100 126 214 126 345-1 87 0 175 0 262 0 3-1 5-1 8-4 1-7 2-10 3-115 22-229 45-343 66-15 3-30 6-45 4-40-6-80-15-120-23-84-17-168-33-254-50z" horiz-adv-x="1061" />

<glyph glyph-name="infantil" unicode="&#xe831;" d="M535 655c0-61 0-119 0-178 52 0 104 0 158 0 0 45 0 90 0 134 0 49 13 62 61 62 23 0 47 1 70 0 33 0 49-16 50-48 1-41 0-81 0-121 0-8 0-17 0-28 20 0 38 0 55 0 46 0 61-14 61-60 0-88 0-177 1-265 0-11 4-24 11-32 43-53 45-126 3-178-41-51-114-66-172-36-60 31-88 98-69 164 2 5 3 10 5 17-10 0-20 0-32 0 23-76 8-139-63-180-51-29-104-24-150 12-55 43-65 101-43 167-16 5-25 5-29-15-19-97-102-168-202-173-95-5-185 60-214 155-29 93 10 193 96 246 7 4 15 15 15 23 1 107 1 215 1 323 0 3-1 6-2 11-16 0-32 0-48 0-32 2-47 17-48 49-1 19-1 38 0 58 1 35 16 50 53 51 65 0 130 0 195 0 89 0 179 0 268 0 43 0 58-15 58-58 0-17 1-34 0-51-2-32-17-47-50-49-12-1-25 0-39 0z m-337-329c8 0 13 0 18 0 124 7 206-54 237-175 1-5 6-12 9-12 24 2 53-2 74 9 50 23 97 26 145-2 5-3 11-8 17-7 49 4 100-11 148 16 21 12 51 7 77 9 5 0 10-1 15-2 0 89 0 175 0 264-152 0-301 0-453 0 0 77 0 152 0 227-96 0-190 0-286 0-1-109-1-217-1-327z m-122-213c0-90 75-166 166-166 90 1 164 75 165 165 0 90-74 165-164 165-92 1-167-73-167-164z m25 595c158 0 314 0 470 0 0 18 0 34 0 52-157 0-313 0-470 0 0-18 0-34 0-52z m507-769c49 1 90 41 89 90-1 47-43 88-91 87-47-1-87-41-87-88 1-49 41-89 89-89z m289 0c49 1 89 41 88 90-1 47-41 87-88 87-48 1-89-40-89-88 0-50 40-89 89-89z m-75 682c-26 0-52 0-77 0 0-49 0-96 0-144 27 0 52 0 77 0 0 49 0 96 0 144z" horiz-adv-x="1061" />

<glyph glyph-name="solo-ida" unicode="&#xe832;" d="M655 545l156-156h0-699v-74h703c0 0 0 0 0 0h0c-55-56-106-107-158-159l50-48 242 243-241 242-53-48z" horiz-adv-x="1061" />

<glyph glyph-name="arrow-abajo" unicode="&#xe833;" d="M531 325c97 96 190 187 284 278 69 68 114 68 179-1 40-29 48-85 19-125-5-7-11-13-18-18-129-127-258-253-388-380-38-41-103-45-145-7-3 3-6 5-8 9-130 125-259 252-388 379-52 51-46 97 13 154 31 43 90 53 133 22 8-5 14-11 20-18 99-96 195-192 299-293z" horiz-adv-x="1061" />

<glyph glyph-name="arrow-izq" unicode="&#xe834;" d="M506 350c95-98 187-191 278-284 68-70 68-114-1-180-30-40-85-48-125-18-7 5-13 11-18 18-127 128-254 258-380 388-42 38-45 102-7 144 2 3 5 6 8 9 126 130 253 259 380 388 51 51 97 46 154-13 43-31 53-91 22-134-5-7-12-14-19-20-95-98-191-195-292-298z" horiz-adv-x="1061" />

<glyph glyph-name="arrow-circular-abajo" unicode="&#xe835;" d="M271 470c0 5 2 10 6 14 7 7 20 7 28 0l226-226 226 226c7 7 20 7 28 0 8-8 8-21 0-29l-240-240c-7-7-20-7-28 0l-240 241c-5 4-6 9-6 14z m-240-120c0 276 224 500 500 500s499-224 499-500-224-500-499-500-500 225-500 500z m959 0c0 253-206 460-460 460s-460-207-460-460 207-460 460-460 460 207 460 460z" horiz-adv-x="1061" />

<glyph glyph-name="arrow-circular-izq" unicode="&#xe836;" d="M650 610c5 0 11-2 14-6 8-8 8-20 0-28l-225-226 225-226c8-8 8-20 0-28-7-8-20-8-28 0l-240 240c-8 7-8 20 0 28l240 240c4 4 9 6 14 6z m-119 240c275 0 499-224 499-500s-224-500-499-500-500 225-500 500 224 500 500 500z m0-960c253 0 459 207 459 460s-206 460-459 460-460-206-460-460 206-460 460-460z" horiz-adv-x="1061" />

<glyph glyph-name="proceso" unicode="&#xe837;" d="M482 182v342a18 18 0 1 0 36 0v-342a18 18 0 1 0-36 0z m471-204a60 60 0 0 0-51-29h-804a61 61 0 0 0-54 89l365 659a104 104 0 0 0 182 0l365-659a61 61 0 0 0-3-60z m-29 43l-365 659a68 68 0 0 1-118 0l-365-659a25 25 0 0 1 22-36h804a25 25 0 0 1 22 36z m-424 96a21 21 0 1 1 21-21 21 21 0 0 1-21 21z" horiz-adv-x="1000" />

<glyph glyph-name="explore" unicode="&#xe839;" d="M908 748h-756c-38 0-69-31-69-69v-546c0-38 31-69 69-69h292c0-68-78-75-78-75-8 0-14-7-14-14v-18c0-8 6-14 14-14h328c8 0 15 6 15 14v18c0 7-7 14-15 14 0 0-77 7-77 75h292c38 0 69 31 69 69v546c-1 38-32 69-70 69z m-378-645c-18 0-33 15-33 34s15 33 33 33 34-15 34-33-15-34-34-34z m389 121c0-6-6-12-12-12h-754c-6 0-11 6-11 12v453c0 7 5 12 11 12h754c6 0 12-5 12-12v-453h0z m-167 415h-443c-9 0-17-7-17-17v-86c0-9 8-17 17-17h443c9 0 17 8 17 17v86c0 9-8 17-17 17z m-266-165h-179c-8 0-15-7-15-15v-178c0-9 7-15 15-15h179c8 0 15 6 15 15v178c0 8-7 15-15 15z m277 0h-227c-3 0-6-2-6-6v-18c0-4 3-6 6-6h227c3 0 6 2 6 6v18c0 4-3 6-6 6z m0-89h-227c-3 0-6-3-6-6v-19c0-3 3-6 6-6h227c3 0 6 3 6 6v19c0 3-3 6-6 6z m0-89h-227c-3 0-6-3-6-6v-19c0-3 3-6 6-6h227c3 0 6 3 6 6v19c0 3-3 6-6 6z" horiz-adv-x="1061" />

<glyph glyph-name="carrito" unicode="&#xe83b;" d="M236 643h664l-63-314a9 9 0 0 0-10-7h-505z m656-324l70 346a28 28 0 0 1-28 34h-713l-7 27a66 66 0 0 1-64 49h-84a28 28 0 1 1 0-57h84a10 10 0 0 0 9-7l129-482a104 104 0 0 1 100-77h471a28 28 0 1 1 0 56h-471a47 47 0 0 0-45 35l-6 22h490a66 66 0 0 1 65 54z m-524-337a47 47 0 1 0 47 47 47 47 0 0 0-47-47m0 151a104 104 0 1 1 104-104 104 104 0 0 1-104 104m415-151a47 47 0 1 0 47 47 47 47 0 0 0-47-47m0 151a104 104 0 1 1 104-104 104 104 0 0 1-104 104" horiz-adv-x="1000" />

<glyph glyph-name="cart-1" unicode="&#xe83c;" d="M539 215a19 19 0 0 0-20-19h-115a19 19 0 0 0 0 38h115a19 19 0 0 0 20-19z m-232 0a19 19 0 0 0-19-19h-154a19 19 0 1 0 0 38h154a19 19 0 0 0 19-19z m598-135h-810a19 19 0 0 0-19 19v290h848v-289a19 19 0 0 0-19-20z m-829 347h848v77h-848z m19 193h810a19 19 0 0 0 19-19v-58h-848v58a19 19 0 0 0 19 19z m810 38h-810a58 58 0 0 1-57-57v-501a58 58 0 0 1 57-58h810a58 58 0 0 1 58 58v501a58 58 0 0 1-58 57z" horiz-adv-x="1000" />

<glyph glyph-name="check-1" unicode="&#xe83d;" d="M366-59q29-22 63-15a91 91 0 0 1 57 35h0l459 671a86 86 0 0 1 16 68 93 93 0 0 1-35 58 78 78 0 0 1-65 16q-33-7-55-35h0l-400-584-220 237q-24 29-60 30t-62-25a88 88 0 0 1-26-65 92 92 0 0 1 24-64h0l69-75q66-76 142-157t93-95z" horiz-adv-x="1000" />

<glyph glyph-name="close" unicode="&#xe83e;" d="M878-113q36 0 60 25t25 60a90 90 0 0 1-25 63h0l-315 315 315 316a90 90 0 0 1 25 62q0 36-25 60t-60 25a90 90 0 0 1-62-25h0l-316-315-316 315q-26 25-60 25t-60-25a78 78 0 0 1-26-60 86 86 0 0 1 26-62h0l313-316-313-316a86 86 0 0 1-26-62 78 78 0 0 1 26-60q27-25 60-25t60 25h0l316 315 316-315a90 90 0 0 1 62-25z" horiz-adv-x="1000" />

<glyph glyph-name="der" unicode="&#xe83f;" d="M315 813l463-463-463-463-92 93 367 370-367 370z" horiz-adv-x="1000" />

<glyph glyph-name="detalle" unicode="&#xe840;" d="M538 152h189v56h-189z m0 226h189v57h-189z m-115-102l40-40-113-114a28 28 0 0 0-40 0l-75 76 40 40 55-55z m0 226l40-40-113-113a28 28 0 0 0-40 0l-75 75 40 40 55-55z m370-558h-585v736h94v-9a28 28 0 0 1 28-28h340a28 28 0 0 1 28 28v9h95z m-435 765a47 47 0 0 0 48 47h188a47 47 0 0 0 48-47v-10h-284z m463 28h-127a104 104 0 0 1-100 76h-188a104 104 0 0 1-100-76h-127a28 28 0 0 1-28-28v-793a28 28 0 0 1 28-29h642a28 28 0 0 1 28 29v793a28 28 0 0 1-28 28z" horiz-adv-x="1000" />

<glyph glyph-name="down" unicode="&#xe841;" d="M963 535l-463-462-462 462 92 93 370-368 370 368z" horiz-adv-x="1000" />

<glyph glyph-name="facturacion-1" unicode="&#xe842;" d="M349 152h302v56h-302z m0 151h302v56h-302z m0 151h302v57h-302z m358-405l-94-93-93 93a28 28 0 0 1-40 0l-93-93-93 93a28 28 0 0 1-40 0l-65-65v732l65-65a28 28 0 0 1 40 0l93 93 93-93a28 28 0 0 1 40 0l93 93 94-93a28 28 0 0 1 40 0l65 65v-732l-65 65a28 28 0 0 1-40 0z m161 735h-28l-20 20-93-93-94 93a28 28 0 0 1-40 0l-93-93-93 93a28 28 0 0 1-40 0l-93-93-94 93-20-20h-28v-868h28l20-20 94 93 93-93a28 28 0 0 1 40 0l93 93 93-93a28 28 0 0 1 40 0l94 93 93-93 20 20h28z" horiz-adv-x="1000" />

<glyph glyph-name="infor" unicode="&#xe843;" d="M506-112q192 4 325 140t132 328q-5 192-141 325t-328 131q-192-4-325-140t-131-328q4-192 140-325t328-131z m-6 627q-29 0-47 19t-19 47q0 29 19 48t47 18q29 0 48-18t18-48q0-29-18-47t-48-19z m91-452h-182v23h46v330h-46v25h137v-355h45z" horiz-adv-x="1000" />

<glyph glyph-name="profile" unicode="&#xe845;" d="M808-113a37 37 0 0 1 37 38 359 359 0 0 1-28 134 340 340 0 0 1-183 184 297 297 0 0 1-43 15 276 276 0 0 1 110 68q84 84 84 202t-84 201q-83 84-201 84t-202-84q-83-83-83-201t83-202a276 276 0 0 1 111-68 249 249 0 0 1-44-15 340 340 0 0 1-183-184 344 344 0 0 1-27-134 37 37 0 0 1 37-38 37 37 0 0 1 37 38q0 112 80 191t191 80q112 0 191-79t80-192a37 37 0 0 1 37-38z m-308 430q-87 0-149 62-62 62-62 149t62 148q62 62 149 62t148-62q62-61 62-148t-62-149q-62-62-148-62z" horiz-adv-x="1000" />

<glyph glyph-name="trash" unicode="&#xe846;" d="M368 482h66v-396h-66z m198 0h66v-396h-66z m-462 198v-66h66v-660a66 66 0 0 1 66-67h528a66 66 0 0 1 66 67v660h66v66z m132-726v660h528v-660z m132 859h264v-67h-264z" horiz-adv-x="1000" />

<glyph glyph-name="up" unicode="&#xe847;" d="M38 165l462 463 463-463-93-92-370 367-370-367z" horiz-adv-x="1000" />

<glyph glyph-name="loc-01" unicode="&#xe848;" d="M500 348a123 123 0 1 1-123 123 123 123 0 0 1 123-123z m0 189a66 66 0 1 0-66-66 66 66 0 0 0 66 66z m-119-298c7-9 14-16 20-24 13-15 26-30 39-44 13-15 26-29 38-43a28 28 0 0 1 43 0c12 14 25 28 38 43 14 14 27 29 39 44 7 8 13 15 20 23 46 54 98 115 112 185a239 239 0 0 1-64 214 235 235 0 0 1-333 0 239 239 0 0 1-64-214c14-70 66-131 112-184z m-7 358a178 178 0 0 0 252 0c41-41 61-105 49-163-12-55-59-110-100-159-7-8-14-16-20-24-12-14-25-28-38-42-6-7-12-13-17-20-6 7-12 13-17 20-13 14-26 28-38 42-6 8-13 16-20 24-42 49-89 104-100 159-12 58 7 122 49 163z m583-591a28 28 0 0 0-23-12h-868a28 28 0 0 0-27 39l145 371a29 29 0 0 0 26 18h41v-57h-21l-123-314h785l-122 314h-20v57h39a29 29 0 0 0 27-18l144-371a28 28 0 0 0-3-27z" horiz-adv-x="1000" />

<glyph glyph-name="arrow-circular-abajo-only" unicode="&#xe84c;" d="M271 470c0 5 2 10 6 14 7 7 20 7 28 0l226-226 226 226c7 7 20 7 28 0 8-8 8-21 0-29l-240-240c-7-7-20-7-28 0l-240 241c-5 4-6 9-6 14z" horiz-adv-x="1061" />

<glyph glyph-name="arrow-circular-izq-only" unicode="&#xe84d;" d="M650 610c5 0 11-2 14-6 8-8 8-20 0-28l-225-226 225-226c8-8 8-20 0-28-7-8-20-8-28 0l-240 240c-8 7-8 20 0 28l240 240c4 4 9 6 14 6z" horiz-adv-x="1061" />

<glyph glyph-name="arrow-circular-only" unicode="&#xe84e;" d="M411 90c-5 0-10 2-14 6-8 8-8 20 0 28l226 226-226 226c-8 8-8 20 0 28 7 8 20 8 28 0l240-239c8-8 8-21 0-29l-240-240c-4-4-9-6-14-6z" horiz-adv-x="1061" />

<glyph glyph-name="negada" unicode="&#xe84f;" d="M721 539l-202-202 202-201a19 19 0 0 0-27-28l-202 202-201-202a19 19 0 0 0-28 28l202 201-202 202a19 19 0 1 0 28 27l201-201 202 201a19 19 0 1 0 27-27z m242-189c0-255-208-463-463-463s-462 208-462 463 207 463 462 463 463-208 463-463z m-39 0c0 234-190 424-424 424s-424-190-424-424 190-424 424-424 424 190 424 424z" horiz-adv-x="1000" />

<glyph glyph-name="solo-vuelta" unicode="&#xe854;" d="M406 155l-156 157 0 0h699v74h-703l0 0 0 0c55 56 106 107 158 158l-50 49-242-243 241-242 53 47z" horiz-adv-x="1061" />

<glyph glyph-name="disney" unicode="&#xe857;" d="M533-99c-190 0-345 155-345 345 0 36 6 73 18 107-5 0-10 0-14 0-96 0-145 66-153 77-46 56-52 125-15 200 26 55 65 93 67 95 2 1 41 38 97 60 76 29 147 14 203-44 9-7 73-67 64-160 50 12 102 12 153 1-9 93 54 152 63 159 56 58 127 72 204 43 55-21 94-58 96-59l0 0c2-2 41-40 67-95 36-75 31-144-16-200-7-11-56-77-152-77-3 0-6 0-10 0 12-34 17-70 17-107 1-190-154-345-344-345z m-256 509l-19-39c-17-40-27-81-27-125 0-167 136-302 302-302s301 136 301 302c0 43-9 85-27 124l-17 38 41-8c106-22 155 53 156 54l0 1 1 1c36 43 40 95 10 156-22 46-55 80-57 82-7 6-135 124-241 17l-1-1c-3-3-70-61-44-152l11-39-39 13c-30 10-62 16-95 16-34 0-67-6-99-17l-40-14 12 40c27 92-41 151-43 153l-2 1c-44 45-97 56-158 33-47-18-81-50-82-50 0 0-35-36-58-83-28-61-25-112 11-155l1-1 0-1c2-4 53-78 160-54l43 10z" horiz-adv-x="1061" />
</font>
</defs>
</svg>
