<svg xmlns="http://www.w3.org/2000/svg" xmlns:xlink="http://www.w3.org/1999/xlink" viewBox="0 0 34 42"><defs><style>.cls-1{fill:#fff;}.cls-1,.cls-3{fill-rule:evenodd;}.cls-2{mask:url(#mask);}.cls-3{fill:#12284c;}.cls-4{mask:url(#mask-2);}</style><mask id="mask" x="0" y="27" width="34" height="15" maskUnits="userSpaceOnUse"><g id="mask-3"><polygon id="path-2" class="cls-1" points="0 27 34 27 34 42 0 42 0 27"/></g></mask><mask id="mask-2" x="1" y="0" width="33" height="28" maskUnits="userSpaceOnUse"><g id="mask-5"><polygon id="path-4" class="cls-1" points="1 0 34 0 34 28 1 28 1 0"/></g></mask></defs><g id="Layer_2" data-name="Layer 2"><g id="Layer_1-2" data-name="Layer 1"><g id="Page-3"><g id="cambio-footer-deskt"><g id="footer-info"><g id="icono"><g id="Group-3"><g class="cls-2"><path id="Fill-1" class="cls-3" d="M27.83,27.21a.84.84,0,1,0-1.11,1.27,17,17,0,0,1,5.57,11.94H26.18v-4.5a.85.85,0,0,0-.85-.85.84.84,0,0,0-.84.85v4.5h-15v-4.5a.84.84,0,0,0-.84-.85.85.85,0,0,0-.85.85v4.5H1.71A17.13,17.13,0,0,1,7.18,28.57a.84.84,0,0,0,.07-1.19.85.85,0,0,0-1.2-.07A18.57,18.57,0,0,0,0,41.15.85.85,0,0,0,.85,42h32.3a.85.85,0,0,0,.85-.85,18.51,18.51,0,0,0-6.17-13.94"/></g></g><g id="Group-6"><g class="cls-4"><path id="Fill-4" class="cls-3" d="M2.48,14A1.11,1.11,0,1,1,4.7,14v3.09a1.11,1.11,0,1,1-2.22,0Zm15-12.53A13.5,13.5,0,0,1,30.29,11.65h0a2.64,2.64,0,0,0-1.23,1.26,13,13,0,0,0-.47-1.68.3.3,0,0,0,0-.1,11.88,11.88,0,0,0-11-8,11.88,11.88,0,0,0-11,8,.49.49,0,0,0,0,.11,13.3,13.3,0,0,0-.47,1.67,2.64,2.64,0,0,0-1.23-1.26h0A13.5,13.5,0,0,1,17.5,1.49ZM32.52,14v3.09a1.11,1.11,0,1,1-2.22,0V14a1.11,1.11,0,1,1,2.22,0Zm-9.73-.61c-1.61.05-3.21-.78-4.74-2.47-1.84-2-3.83-3-5.91-2.95a6.54,6.54,0,0,0-2.67.69,10.12,10.12,0,0,1,8-4A10.36,10.36,0,0,1,27,11.29a6.58,6.58,0,0,1-4.23,2.12ZM17.5,24.21a.85.85,0,0,1-.85-.85A.85.85,0,0,1,18.28,23a.77.77,0,0,0-.08.34.73.73,0,0,0,.08.33.86.86,0,0,1-.78.52ZM3.59,19.72a2.59,2.59,0,0,0,2.35-1.51A12,12,0,0,0,17.5,28,11.32,11.32,0,0,0,24,26a.75.75,0,0,0,.2-1,.74.74,0,0,0-1-.19,10,10,0,0,1-5.64,1.77c-5.7,0-10.34-4.91-10.34-10.94a11.57,11.57,0,0,1,.62-3.75,6.73,6.73,0,0,1,4.41-2.34c1.63-.06,3.23.78,4.76,2.47,1.78,2,3.7,3,5.7,3h.21a7.6,7.6,0,0,0,4.66-2,11.53,11.53,0,0,1-.63,7.28.75.75,0,0,0,.38,1,.73.73,0,0,0,1-.38,12.73,12.73,0,0,0,.81-2.54,2.56,2.56,0,0,0,1.11,1.19.25.25,0,0,0,0,.07c-.61,1.79-3.4,3.14-6.5,3.14H19.71a2.35,2.35,0,1,0,0,1.49h3.94c3.83,0,7.08-1.71,7.9-4.15a.67.67,0,0,0,0-.24A2.6,2.6,0,0,0,34,17.11V14a2.61,2.61,0,0,0-2.25-2.59.57.57,0,0,0,0-.18,15.78,15.78,0,0,0-5.23-8,14.23,14.23,0,0,0-18,0,15.78,15.78,0,0,0-5.23,8.05.57.57,0,0,0,0,.18A2.61,2.61,0,0,0,1,14v3.09a2.6,2.6,0,0,0,2.59,2.61Z"/></g></g></g></g></g></g></g></g></svg>